<?xml version="1.0" encoding="UTF-8"?>
<svg width="82px" height="82px" viewBox="0 0 82 82" version="1.1" xmlns="http://www.w3.org/2000/svg" xmlns:xlink="http://www.w3.org/1999/xlink">
    <!-- Generator: Sketch 50.2 (55047) - http://www.bohemiancoding.com/sketch -->
    <title>icon1</title>
    <desc>Created with Sketch.</desc>
    <defs>
        <rect id="path-1" x="0" y="0" width="52" height="52" rx="4"></rect>
        <filter x="-43.3%" y="-43.3%" width="186.5%" height="186.5%" filterUnits="objectBoundingBox" id="filter-2">
            <feOffset dx="0" dy="0" in="SourceAlpha" result="shadowOffsetOuter1"></feOffset>
            <feGaussianBlur stdDeviation="7.5" in="shadowOffsetOuter1" result="shadowBlurOuter1"></feGaussianBlur>
            <feColorMatrix values="0 0 0 0 0.42745098   0 0 0 0 0.368627451   0 0 0 0 0.968627451  0 0 0 0.25 0" type="matrix" in="shadowBlurOuter1"></feColorMatrix>
        </filter>
    </defs>
    <g id="Page-1" stroke="none" stroke-width="1" fill="none" fill-rule="evenodd">
        <g id="MagnusLAndingPage" transform="translate(-713.000000, -5470.000000)">
            <g id="howItWorks" transform="translate(201.000000, 4624.000000)">
                <g id="firstIItel-Copy-2" transform="translate(527.000000, 856.000000)">
                    <g id="icon1" transform="translate(0.000000, 5.000000)">
                        <g id="Rectangle-21">
                            <use fill="black" fill-opacity="1" filter="url(#filter-2)" xlink:href="#path-1"></use>
                            <use fill="#6D5EF7" fill-rule="evenodd" xlink:href="#path-1"></use>
                        </g>
                        <g id="002-compass" transform="translate(12.000000, 12.000000)" fill="#FFFFFF" fill-rule="nonzero">
                            <path d="M14,0 C6.28042187,0 0,6.28042187 0,14 C0,21.7195781 6.28042187,28 14,28 C21.7195781,28 28,21.7195781 28,14 C28,6.28042187 21.7195781,0 14,0 Z M14,27.0666484 C6.79514062,27.0666484 0.933351563,21.2048594 0.933351563,14 C0.933351563,6.79514062 6.79514062,0.933351563 14,0.933351563 C21.2048594,0.933351563 27.0666484,6.79514062 27.0666484,14 C27.0666484,21.2048594 21.2048594,27.0666484 14,27.0666484 Z" id="Shape"></path>
                            <path d="M15.6657756,12.8783021 C14.9258875,12.1338993 13.6342273,12.1338993 12.8942818,12.8783021 C12.5238496,13.2500419 12.32,13.7448487 12.32,14.2706387 C12.32,14.7964864 12.5238496,15.2912932 12.893765,15.6629754 C13.2641971,16.0351767 13.7566519,16.24 14.28,16.24 C14.8033481,16.24 15.2958029,16.0351767 15.6657182,15.6629754 C16.035691,15.2912355 16.24,14.7964287 16.24,14.2706387 C16.2400574,13.744791 16.0357484,13.2499842 15.6657756,12.8783021 Z M14.9729165,14.966807 C14.6024844,15.3390084 13.9571136,15.3390084 13.5866815,14.966807 C13.4019535,14.7806775 13.3000287,14.5335626 13.3000287,14.2706387 C13.3000287,14.0077149 13.4019535,13.7605422 13.5871983,13.5744704 C13.7724431,13.3883409 14.0183834,13.2859292 14.2800574,13.2859292 C14.5417315,13.2859292 14.7877292,13.3883409 14.9729165,13.5744704 C15.1581613,13.7605999 15.2600861,14.0077149 15.2600861,14.2706387 C15.2600861,14.5335626 15.1581613,14.7807352 14.9729165,14.966807 Z" id="Shape"></path>
                            <path d="M20.104736,19.0649449 L17.0786091,11.1971481 C17.0314788,11.0744547 16.9339923,10.9769123 16.8108083,10.929344 L8.91981615,7.89432245 C8.62259993,7.7799945 8.2988114,7.84905055 8.07393092,8.07393379 C7.84905044,8.29881703 7.77999524,8.62260953 7.89432178,8.91982939 C7.89432178,8.91982939 7.89432178,8.91982939 7.89432178,8.92032147 L10.9293062,16.8114104 C10.9764365,16.9341038 11.073923,17.0316461 11.1971069,17.0792144 L19.0643153,20.1049411 C19.1608723,20.1417928 19.2597803,20.16 19.3573215,20.16 C19.5649245,20.16 19.7669506,20.0783684 19.9227759,19.9229786 C20.1509369,19.6948148 20.2209216,19.3663749 20.104736,19.0649449 Z M11.7252726,16.2828008 L8.87738794,8.87783806 L16.2817678,11.7257577 L19.1296525,19.1307204 L11.7252726,16.2828008 Z" id="Shape"></path>
                            <path d="M13.2918336,14.7083339 C13.0945452,14.5105554 12.7743072,14.5105554 12.5765445,14.7083339 L10.788322,16.4966972 C10.5905593,16.6944757 10.5905593,17.0141099 10.788322,17.2118291 C10.8869662,17.3104517 11.016496,17.36 11.1459665,17.36 C11.2754963,17.36 11.4049668,17.3109258 11.503611,17.2118291 L13.2918336,15.4234658 C13.4896555,15.2257466 13.489122,14.9061124 13.2918336,14.7083339 Z" id="Shape"></path>
                            <path d="M17.2116862,10.7883339 C17.0138753,10.5905554 16.6941886,10.5905554 16.496437,10.7883339 L14.7083138,12.5766972 C14.5105621,12.7744757 14.5105621,13.0941099 14.7083138,13.2918291 C14.8069525,13.3904517 14.9364751,13.44 15.0659384,13.44 C15.195461,13.44 15.3249243,13.3904517 15.423563,13.2918291 L17.2116862,11.5034658 C17.4094379,11.3057466 17.4094379,10.9860531 17.2116862,10.7883339 Z" id="Shape"></path>
                            <path d="M13.72,1.68 C7.08133197,1.68 1.68,7.08089784 1.68,13.72 C1.68,20.3591022 7.08133197,25.76 13.72,25.76 C20.358668,25.76 25.76,20.3591022 25.76,13.72 C25.76,7.08089784 20.358668,1.68 13.72,1.68 Z M13.72,24.8338295 C7.59165644,24.8338295 2.60617054,19.8479094 2.60617054,13.72 C2.60617054,7.59209058 7.59165644,2.60617054 13.72,2.60617054 C19.8479094,2.60617054 24.8338295,7.59209058 24.8338295,13.72 C24.8338295,19.8479094 19.8479094,24.8338295 13.72,24.8338295 Z" id="Shape"></path>
                            <path d="M14,3.92 C13.6908942,3.92 13.44,4.1285822 13.44,4.38665755 L13.44,6.25334245 C13.44,6.5114178 13.6908942,6.72 14,6.72 C14.3091058,6.72 14.56,6.5114178 14.56,6.25334245 L14.56,4.38665755 C14.56,4.1285822 14.3091058,3.92 14,3.92 Z" id="Shape"></path>
                            <path d="M14,21.28 C13.6908942,21.28 13.44,21.4885781 13.44,21.7466484 L13.44,23.6133516 C13.44,23.8714219 13.6908942,24.08 14,24.08 C14.3091058,24.08 14.56,23.8714219 14.56,23.6133516 L14.56,21.7467031 C14.56,21.4886328 14.3091058,21.28 14,21.28 Z" id="Shape"></path>
                            <path d="M23.6133424,13.44 L21.7466576,13.44 C21.4890744,13.44 21.28,13.6903035 21.28,14 C21.28,14.3096965 21.4890744,14.56 21.7466576,14.56 L23.6133424,14.56 C23.8709256,14.56 24.08,14.3096965 24.08,14 C24.08,13.6903035 23.8709256,13.44 23.6133424,13.44 Z" id="Shape"></path>
                            <path d="M6.25334245,13.44 L4.38665755,13.44 C4.1290744,13.44 3.92,13.6903035 3.92,14 C3.92,14.3096965 4.1290744,14.56 4.38665755,14.56 L6.25334245,14.56 C6.5109256,14.56 6.72,14.3096965 6.72,14 C6.72,13.6903035 6.51098029,13.44 6.25334245,13.44 Z" id="Shape"></path>
                            <path d="M21.143978,6.85603965 C20.962561,6.67465345 20.668934,6.67465345 20.4880063,6.85603965 L19.1760628,8.1682495 C18.9946457,8.34963571 18.9946457,8.64277798 19.1760628,8.82410983 C19.2665266,8.91455833 19.3853148,8.96 19.5040486,8.96 C19.6228368,8.96 19.7415706,8.91499318 19.8320345,8.82410983 L21.143978,7.51189998 C21.3253407,7.33056813 21.3253407,7.0373715 21.143978,6.85603965 Z" id="Shape"></path>
                            <path d="M8.82413117,19.1760397 C8.64319027,18.9946534 8.34948752,18.9946534 8.16811167,19.1760397 L6.85607267,20.4882495 C6.67464244,20.6696357 6.67464244,20.962778 6.85607267,21.1441098 C6.94654312,21.2345583 7.06533995,21.28 7.18408242,21.28 C7.30287925,21.28 7.42162172,21.2345583 7.51209217,21.1441098 L8.82413117,19.8319 C9.00550702,19.6505681 9.00507207,19.3574259 8.82413117,19.1760397 Z" id="Shape"></path>
                        </g>
                    </g>
                </g>
            </g>
        </g>
    </g>
</svg>