<?xml version="1.0" encoding="UTF-8"?>
<svg width="82px" height="82px" viewBox="0 0 82 82" version="1.1" xmlns="http://www.w3.org/2000/svg" xmlns:xlink="http://www.w3.org/1999/xlink">
    <!-- Generator: Sketch 50.2 (55047) - http://www.bohemiancoding.com/sketch -->
    <title>icon1</title>
    <desc>Created with Sketch.</desc>
    <defs>
        <rect id="path-1" x="0" y="0" width="52" height="52" rx="4"></rect>
        <filter x="-43.3%" y="-43.3%" width="186.5%" height="186.5%" filterUnits="objectBoundingBox" id="filter-2">
            <feOffset dx="0" dy="0" in="SourceAlpha" result="shadowOffsetOuter1"></feOffset>
            <feGaussianBlur stdDeviation="7.5" in="shadowOffsetOuter1" result="shadowBlurOuter1"></feGaussianBlur>
            <feColorMatrix values="0 0 0 0 0.42745098   0 0 0 0 0.368627451   0 0 0 0 0.968627451  0 0 0 0.25 0" type="matrix" in="shadowBlurOuter1"></feColorMatrix>
        </filter>
    </defs>
    <g id="Page-1" stroke="none" stroke-width="1" fill="none" fill-rule="evenodd">
        <g id="MagnusLAndingPage" transform="translate(-713.000000, -5470.000000)">
            <g id="howItWorks" transform="translate(201.000000, 4624.000000)">
                <g id="firstIItel-Copy-2" transform="translate(527.000000, 856.000000)">
                    <g id="icon1" transform="translate(0.000000, 5.000000)">
                        <g id="Rectangle-21">
                            <use fill="black" fill-opacity="1" filter="url(#filter-2)" xlink:href="#path-1"></use>
                            <use fill="#6D5EF7" fill-rule="evenodd" xlink:href="#path-1"></use>
                        </g>
                        <g id="database" transform="translate(12.000000, 12.000000)" fill="#FFFFFF" fill-rule="nonzero">
                            <path d="M4.9,2.85833333 C3.7422,2.85833333 2.8,3.80053333 2.8,4.95833333 C2.8,6.11613333 3.7422,7.05833333 4.9,7.05833333 C6.0578,7.05833333 7,6.11613333 7,4.95833333 C7,3.80053333 6.0578,2.85833333 4.9,2.85833333 Z M4.9,6.125 C4.25693333,6.125 3.73333333,5.60186667 3.73333333,4.95833333 C3.73333333,4.3148 4.25693333,3.79166667 4.9,3.79166667 C5.54306667,3.79166667 6.06666667,4.3148 6.06666667,4.95833333 C6.06666667,5.60186667 5.54306667,6.125 4.9,6.125 Z" id="Shape"></path>
                            <circle id="Oval" cx="23.3333333" cy="4.25833333" r="1"></circle>
                            <circle id="Oval" cx="21.4666667" cy="4.25833333" r="1"></circle>
                            <circle id="Oval" cx="24.2666667" cy="5.65833333" r="1"></circle>
                            <circle id="Oval" cx="22.4" cy="5.65833333" r="1"></circle>
                            <circle id="Oval" cx="19.6" cy="4.25833333" r="1"></circle>
                            <circle id="Oval" cx="20.5333333" cy="5.65833333" r="1"></circle>
                            <circle id="Oval" cx="17.7333333" cy="4.25833333" r="1"></circle>
                            <circle id="Oval" cx="18.6666667" cy="5.65833333" r="1"></circle>
                            <circle id="Oval" cx="15.8666667" cy="4.25833333" r="1"></circle>
                            <circle id="Oval" cx="16.8" cy="5.65833333" r="1"></circle>
                            <path d="M4.9,11.725 C3.7422,11.725 2.8,12.6672 2.8,13.825 C2.8,14.9828 3.7422,15.925 4.9,15.925 C6.0578,15.925 7,14.9828 7,13.825 C7,12.6672 6.0578,11.725 4.9,11.725 Z M4.9,14.9916667 C4.25693333,14.9916667 3.73333333,14.4685333 3.73333333,13.825 C3.73333333,13.1814667 4.25693333,12.6583333 4.9,12.6583333 C5.54306667,12.6583333 6.06666667,13.1814667 6.06666667,13.825 C6.06666667,14.4685333 5.54306667,14.9916667 4.9,14.9916667 Z" id="Shape"></path>
                            <path d="M4.9,20.5916667 C3.7422,20.5916667 2.8,21.5338667 2.8,22.6916667 C2.8,23.8494667 3.7422,24.7916667 4.9,24.7916667 C6.0578,24.7916667 7,23.8494667 7,22.6916667 C7,21.5338667 6.0578,20.5916667 4.9,20.5916667 Z M4.9,23.8583333 C4.25693333,23.8583333 3.73333333,23.3352 3.73333333,22.6916667 C3.73333333,22.0481333 4.25693333,21.525 4.9,21.525 C5.54306667,21.525 6.06666667,22.0481333 6.06666667,22.6916667 C6.06666667,23.3352 5.54306667,23.8583333 4.9,23.8583333 Z" id="Shape"></path>
                            <path d="M28,7.70793333 L28,2.20873333 C28,1.02293333 27.0354,0.0583333333 25.8496,0.0583333333 L2.1504,0.0583333333 C0.9646,0.0583333333 0,1.02293333 0,2.20873333 L0,7.70746667 C0,8.393 0.328066667,8.99733333 0.829266667,9.3912 C0.328066667,9.78553333 0,10.3903333 0,11.0754 L0,16.5741333 C0,17.2596667 0.328066667,17.864 0.829266667,18.2578667 C0.328066667,18.6522 0,19.257 0,19.9420667 L0,25.4408 C0,26.6266 0.9646,27.5912 2.1504,27.5912 L15.1587333,27.5912 C16.4103333,27.8217333 17.7823333,27.9412 19.1333333,27.9412 C23.1802667,27.9412 27.4474667,26.8916667 27.951,24.8831333 C27.9822667,24.8210667 28,24.7501333 28,24.675 L28,20.475 L28,20.3 L28,20.125 L28,16.275 L28,16.1 L28,15.925 L28,11.9 L28,11.725 C28,11.655 27.9827333,11.5901333 27.9552,11.5308667 C27.7932667,10.8476667 27.1861333,10.2722667 26.2929333,9.8112 C27.2664,9.60633333 28,8.7416 28,7.70793333 Z M0.933333333,16.5746 L0.933333333,11.0754 C0.933333333,10.4043333 1.47933333,9.85833333 2.1504,9.85833333 L11.8850667,9.85833333 C11.0408667,10.3114667 10.4678,10.8705333 10.3114667,11.5308667 C10.2839333,11.5906 10.2666667,11.655 10.2666667,11.725 L10.2666667,11.9 L10.2666667,15.925 L10.2666667,16.1 L10.2666667,16.275 L10.2666667,17.7916667 L2.1504,17.7916667 C1.47933333,17.7916667 0.933333333,17.2456667 0.933333333,16.5746 Z M11.4921333,13.7106667 C11.5131333,13.7242 11.5355333,13.7377333 11.557,13.7512667 C11.6391333,13.8026 11.7245333,13.853 11.8136667,13.9024667 C11.8393333,13.9164667 11.8640667,13.9309333 11.8897333,13.9444667 C11.9984667,14.0028 12.1114,14.0597333 12.229,14.1143333 C12.2476667,14.1232 12.2677333,14.1316 12.2864,14.14 C12.3895333,14.1871333 12.4954667,14.2324 12.6046667,14.2767333 C12.6368667,14.2898 12.6686,14.3028667 12.7008,14.3154667 C12.8296,14.3658667 12.9607333,14.4153333 13.0965333,14.462 C13.104,14.4643333 13.1114667,14.4666667 13.1189333,14.4694667 C13.2486667,14.5138 13.3821333,14.5562667 13.5179333,14.5973333 C13.5543333,14.6085333 13.5912,14.6192667 13.6280667,14.63 C13.7624667,14.6692 13.8987333,14.7074667 14.0382667,14.7438667 C14.0494667,14.7466667 14.0602,14.7499333 14.0714,14.7527333 C14.2216667,14.7914667 14.3752,14.8274 14.5310667,14.8624 C14.5702667,14.8712667 14.6099333,14.8796667 14.6491333,14.8880667 C14.7826,14.917 14.9174667,14.9445333 15.0537333,14.9706667 C15.0808,14.9758 15.1078667,14.9814 15.1349333,14.9865333 C15.295,15.0164 15.4569333,15.0439333 15.6207333,15.0700667 C15.6594667,15.0761333 15.6991333,15.0822 15.7378667,15.0882667 C15.8736667,15.1092667 16.0104,15.1288667 16.1485333,15.1470667 C16.1863333,15.1522 16.2236667,15.1573333 16.2619333,15.162 C16.429,15.183 16.597,15.2026 16.7664,15.2203333 C16.8004667,15.2240667 16.835,15.2268667 16.8690667,15.2301333 C17.0114,15.2441333 17.1546667,15.2567333 17.2979333,15.2684 C17.3413333,15.2716667 17.3842667,15.2754 17.4276667,15.2786667 C17.5989333,15.2912667 17.7711333,15.3024667 17.9433333,15.3113333 C17.9676,15.3127333 17.9923333,15.3132 18.0170667,15.3146 C18.1687333,15.3220667 18.3208667,15.3276667 18.473,15.3318667 C18.5187333,15.3332667 18.5644667,15.3346667 18.6106667,15.3356 C18.7847333,15.3393333 18.9588,15.3421333 19.1324,15.3421333 C19.306,15.3421333 19.4800667,15.3393333 19.6541333,15.3356 C19.6998667,15.3346667 19.7456,15.3332667 19.7918,15.3318667 C19.9439333,15.3276667 20.0956,15.3220667 20.2477333,15.3146 C20.2724667,15.3132 20.2967333,15.3127333 20.3214667,15.3113333 C20.4936667,15.3024667 20.6658667,15.2912667 20.8371333,15.2786667 C20.8805333,15.2754 20.9234667,15.2721333 20.9668667,15.2684 C21.1106,15.2572 21.2534,15.2441333 21.3957333,15.2301333 C21.4298,15.2268667 21.4643333,15.2236 21.4984,15.2203333 C21.6678,15.2026 21.8358,15.1834667 22.0028667,15.162 C22.0406667,15.1573333 22.0784667,15.1522 22.1162667,15.1470667 C22.2539333,15.1288667 22.3911333,15.1092667 22.5269333,15.0882667 C22.5661333,15.0822 22.6053333,15.0766 22.6440667,15.0700667 C22.8078667,15.0439333 22.9698,15.0164 23.1298667,14.9865333 C23.1574,14.9814 23.184,14.9758 23.2110667,14.9706667 C23.3478,14.9445333 23.4826667,14.917 23.6156667,14.8880667 C23.6553333,14.8792 23.6945333,14.8708 23.7337333,14.8624 C23.8891333,14.8274 24.0431333,14.7914667 24.1934,14.7527333 C24.2046,14.7499333 24.2153333,14.7466667 24.2265333,14.7438667 C24.3660667,14.7079333 24.5023333,14.6696667 24.6367333,14.63 C24.6736,14.6192667 24.7104667,14.6085333 24.7468667,14.5973333 C24.8826667,14.5562667 25.0161333,14.5138 25.1458667,14.4694667 C25.1533333,14.4671333 25.1608,14.4648 25.1682667,14.462 C25.3040667,14.4148667 25.4356667,14.3658667 25.564,14.3154667 C25.5966667,14.3028667 25.6284,14.2898 25.6601333,14.2767333 C25.7693333,14.2324 25.8752667,14.1871333 25.9784,14.14 C25.9975333,14.1311333 26.0171333,14.1232 26.0358,14.1143333 C26.1534,14.0597333 26.2658667,14.0028 26.3750667,13.9444667 C26.4012,13.9304667 26.4259333,13.9164667 26.4511333,13.9024667 C26.5398,13.8534667 26.6252,13.8030667 26.7078,13.7512667 C26.7292667,13.7377333 26.7516667,13.7246667 26.7726667,13.7106667 C26.8692667,13.6481333 26.9607333,13.5837333 27.0475333,13.5174667 C27.0531333,13.5132667 27.0596667,13.5095333 27.0652667,13.5053333 L27.0652667,15.8330667 C27.0540667,15.8872 27.0466,15.9422667 27.0554667,15.9978 C27.062,16.0318667 27.0666667,16.0654667 27.0666667,16.1 C27.0666667,16.1513333 27.0522,16.2036 27.0396,16.2554 C27.0298,16.2955333 27.0172,16.3361333 27.0004,16.3762667 C26.9854667,16.4112667 26.9668,16.4467333 26.9462667,16.4817333 C26.9262,16.5167333 26.9042667,16.5522 26.8790667,16.5872 C26.8431333,16.6357333 26.8025333,16.6842667 26.7563333,16.7328 C26.7390667,16.7514667 26.7218,16.7701333 26.7031333,16.7888 C25.7152,17.7445333 22.7999333,18.6078667 19.1338,18.6078667 C15.47,18.6078667 12.5561333,17.7454667 11.5663333,16.7902 C11.5458,16.7696667 11.5271333,16.7496 11.5084667,16.7290667 C11.4646,16.6824 11.4249333,16.6357333 11.3904,16.5890667 C11.3638,16.5522 11.3404667,16.5153333 11.3194667,16.478 C11.3003333,16.4448667 11.2826,16.4117333 11.2681333,16.3781333 C11.2499333,16.3356667 11.2373333,16.2936667 11.2270667,16.2516667 C11.2144667,16.2012667 11.2,16.1504 11.2,16.1 C11.2,16.0668667 11.2042,16.0337333 11.2098,16.0010667 C11.2196,15.9404 11.2135333,15.8797333 11.2,15.8214 L11.2,13.5048667 C11.2056,13.5090667 11.2121333,13.5128 11.2177333,13.517 C11.3040667,13.5832667 11.3955333,13.6476667 11.4921333,13.7106667 Z M26.9999333,20.5762667 C26.985,20.6112667 26.9663333,20.6467333 26.9458,20.6817333 C26.9257333,20.7167333 26.9038,20.7522 26.8786,20.7872 C26.8426667,20.8357333 26.8020667,20.8842667 26.7558667,20.9328 C26.7386,20.9514667 26.7213333,20.9701333 26.7026667,20.9888 C25.7147333,21.9445333 22.7994667,22.8078667 19.1333333,22.8078667 C15.4695333,22.8078667 12.5556667,21.9454667 11.5658667,20.9902 C11.5453333,20.9696667 11.5266667,20.9496 11.508,20.9290667 C11.4641333,20.8824 11.4244667,20.8357333 11.3899333,20.7890667 C11.3633333,20.7522 11.34,20.7153333 11.319,20.678 C11.2998667,20.6448667 11.2821333,20.6117333 11.2676667,20.5781333 C11.2494667,20.5356667 11.2368667,20.4936667 11.2266,20.4516667 C11.2158667,20.4078 11.2046667,20.3634667 11.2032667,20.3196 L11.2032667,20.2636 C11.2051333,20.2426 11.2060667,20.2216 11.2093333,20.2006 C11.2158667,20.1604667 11.207,20.1212667 11.2028,20.0816 L11.2,17.7916667 L11.2,17.7048667 C11.2186667,17.7193333 11.2406,17.7328667 11.2602,17.7468667 C11.319,17.7907333 11.3806,17.8336667 11.4436,17.8761333 C11.4949333,17.9102 11.5481333,17.9438 11.6022667,17.9774 C11.6858,18.0287333 11.7698,18.0796 11.8594,18.1286 C11.8603333,18.1290667 11.8612667,18.1295333 11.8617333,18.13 C12.8352,18.6606 14.1736,19.0437333 15.6534,19.2756667 C15.6646,19.2775333 15.6758,19.2789333 15.687,19.2808 C16.1644,19.355 16.6544,19.4128667 17.1528,19.4553333 C17.2587333,19.4642 17.3642,19.4735333 17.4710667,19.481 C17.5751333,19.4884667 17.6792,19.495 17.7837333,19.5006 C17.9246667,19.5085333 18.0656,19.5155333 18.2065333,19.5211333 C18.2886667,19.5244 18.3708,19.5281333 18.4534,19.5304667 C18.6806667,19.537 18.9074667,19.5416667 19.1338,19.5416667 C19.3596667,19.5416667 19.5864667,19.5374667 19.8128,19.5309333 C19.8958667,19.5286 19.9784667,19.5248667 20.0615333,19.5216 C20.2015333,19.516 20.3410667,19.5094667 20.4806,19.5015333 C20.5860667,19.4954667 20.6910667,19.4889333 20.7960667,19.4814667 C20.9010667,19.474 21.0046667,19.4651333 21.1092,19.4562667 C21.6122667,19.4138 22.1069333,19.355 22.5885333,19.2803333 C22.5955333,19.2794 22.603,19.278 22.61,19.2770667 C24.227,19.0241333 25.6732,18.5896667 26.6611333,17.9802 C26.7148,17.9470667 26.768,17.9139333 26.8188667,17.8798667 C26.8818667,17.8378667 26.9434667,17.7949333 27.0018,17.7510667 C27.0228,17.7356667 27.0466,17.7212 27.0671333,17.7053333 L27.0671333,20.0330667 C27.0559333,20.0872 27.0484667,20.1422667 27.0573333,20.1978 C27.062,20.2318667 27.0666667,20.2654667 27.0666667,20.3 C27.0666667,20.3513333 27.0522,20.4036 27.0396,20.4554 C27.0293333,20.4955333 27.0172,20.5361333 26.9999333,20.5762667 Z M2.1504,26.6583333 C1.47933333,26.6583333 0.933333333,26.1123333 0.933333333,25.4412667 L0.933333333,19.9420667 C0.933333333,19.271 1.47933333,18.725 2.1504,18.725 L10.2666667,18.725 L10.2666667,20.125 L10.2666667,20.3 L10.2666667,20.475 L10.2666667,24.675 L10.2666667,25.1416667 L10.4048,25.1416667 C10.4122667,25.1589333 10.423,25.1757333 10.4314,25.193 C10.4477333,25.228 10.4659333,25.2620667 10.4846,25.2966 C10.5228667,25.3656667 10.5662667,25.4338 10.6143333,25.501 C10.6619333,25.5686667 10.7156,25.634 10.7725333,25.6988667 C10.8014667,25.7315333 10.8304,25.7637333 10.8616667,25.7959333 C11.0404,25.9802667 11.2550667,26.1529333 11.5028667,26.3144 C11.5112667,26.32 11.5201333,26.3256 11.529,26.3312 C11.7082,26.4464667 11.9018667,26.5556667 12.1114,26.6588 L2.1504,26.6588 L2.1504,26.6583333 Z M27.0666667,24.5555333 C27.0629333,24.57 27.0596667,24.5849333 27.0573333,24.5994 C26.8664667,25.7628 23.6366667,27.0083333 19.1333333,27.0083333 C17.6964667,27.0083333 16.3916667,26.8809333 15.2712,26.6704667 L15.2716667,26.6667333 C12.9509333,26.2276 11.6666667,25.4860667 11.3073333,24.8607333 C11.3068667,24.8602667 11.3064,24.8598 11.3064,24.8588667 C11.2900667,24.8299333 11.2784,24.8014667 11.2658,24.7734667 C11.2415333,24.7151333 11.2186667,24.6572667 11.2093333,24.5994 L11.2056,21.9090667 C11.2224,21.9221333 11.2424667,21.9342667 11.2597333,21.9473333 C11.3185333,21.9912 11.3801333,22.0341333 11.4431333,22.0766 C11.4944667,22.1106667 11.5476667,22.1442667 11.6018,22.1778667 C11.6853333,22.2292 11.7693333,22.2800667 11.8589333,22.3290667 C11.8598667,22.3295333 11.8608,22.33 11.8612667,22.3304667 C12.8347333,22.8610667 14.1731333,23.2442 15.6529333,23.4761333 C15.6641333,23.478 15.6753333,23.4794 15.6865333,23.4812667 C16.1639333,23.5554667 16.6539333,23.6133333 17.1523333,23.6558 C17.2582667,23.6646667 17.3637333,23.674 17.4706,23.6814667 C17.5746667,23.6889333 17.6787333,23.6954667 17.7832667,23.7010667 C17.9242,23.709 18.0651333,23.716 18.2060667,23.7216 C18.2882,23.7248667 18.3703333,23.7286 18.4529333,23.7309333 C18.6802,23.7374667 18.907,23.7421333 19.1333333,23.7421333 C19.3592,23.7421333 19.586,23.7379333 19.8123333,23.7314 C19.8954,23.7290667 19.978,23.7253333 20.0610667,23.7220667 C20.2010667,23.7164667 20.3406,23.7099333 20.4801333,23.702 C20.5856,23.6959333 20.6906,23.6894 20.7956,23.6819333 C20.9006,23.6744667 21.0042,23.6656 21.1087333,23.6567333 C21.6118,23.6142667 22.1064667,23.5554667 22.5880667,23.4808 C22.5950667,23.4798667 22.6025333,23.4784667 22.6095333,23.4775333 C24.2265333,23.2246 25.6727333,22.7901333 26.6606667,22.1806667 C26.7143333,22.1475333 26.7675333,22.1144 26.8184,22.0803333 C26.8814,22.0383333 26.943,21.9954 27.0013333,21.9515333 C27.0223333,21.9361333 27.0461333,21.9216667 27.0666667,21.9058 L27.0666667,24.5555333 Z M27.0666667,11.9 C27.0666667,13.0839333 23.6735333,14.4083333 19.1333333,14.4083333 C14.5926667,14.4083333 11.2,13.0839333 11.2,11.9 C11.2,11.8402667 11.2144667,11.7796 11.2317333,11.7189333 C11.2504,11.6587333 11.2756,11.5971333 11.3129333,11.5336667 C11.3143333,11.5308667 11.3157333,11.5280667 11.3171333,11.5252667 C11.4725333,11.2658 11.7856667,10.9867333 12.2677333,10.7174667 C12.2882667,10.7062667 12.3092667,10.6950667 12.3302667,10.6838667 C12.4128667,10.6390667 12.5001333,10.5947333 12.5920667,10.5508667 C12.6989333,10.5009333 12.8086,10.451 12.9262,10.4029333 C12.9490667,10.3931333 12.9728667,10.3838 12.9966667,10.3744667 C13.5389333,10.1584 14.1922667,9.9666 14.9277333,9.8098 C15.1578,9.76126667 15.3920667,9.71553333 15.6328667,9.6754 C15.6968,9.66466667 15.7593333,9.65346667 15.8242,9.6432 C17.9134667,9.3212 20.3508667,9.3212 22.4401333,9.6432 C22.5059333,9.65346667 22.5694,9.66513333 22.6342667,9.67586667 C22.8736667,9.71553333 23.1065333,9.7608 23.3347333,9.80933333 C25.6097333,10.2937333 27.0666667,11.1258 27.0666667,11.9 Z M27.0666667,7.70793333 C27.0666667,8.379 26.5206667,8.925 25.8496,8.925 L23.6889333,8.925 C23.6618667,8.91893333 23.632,8.9152 23.6049333,8.90913333 C23.2988,8.84286667 22.9838,8.7836 22.6618,8.73226667 C22.6305333,8.7276 22.5992667,8.72246667 22.568,8.7178 C21.4662,8.54653333 20.2902,8.45833333 19.1333333,8.45833333 C17.9764667,8.45833333 16.8014,8.54653333 15.6996,8.7178 C15.6674,8.72246667 15.6356667,8.7276 15.6034667,8.73226667 C15.2824,8.7836 14.9683333,8.84286667 14.6631333,8.90866667 C14.6356,8.91473333 14.6048,8.91846667 14.5772667,8.92453333 L2.1504,8.92453333 C1.47933333,8.925 0.933333333,8.379 0.933333333,7.70793333 L0.933333333,2.20873333 C0.933333333,1.53766667 1.47933333,0.991666667 2.1504,0.991666667 L25.8491333,0.991666667 C26.5206667,0.991666667 27.0666667,1.53766667 27.0666667,2.20873333 L27.0666667,7.70793333 Z" id="Shape"></path>
                        </g>
                    </g>
                </g>
            </g>
        </g>
    </g>
</svg>