<?xml version="1.0" encoding="UTF-8"?>
<svg width="82px" height="82px" viewBox="0 0 82 82" version="1.1" xmlns="http://www.w3.org/2000/svg" xmlns:xlink="http://www.w3.org/1999/xlink">
    <!-- Generator: Sketch 50.2 (55047) - http://www.bohemiancoding.com/sketch -->
    <title>icon1 copy</title>
    <desc>Created with Sketch.</desc>
    <defs>
        <rect id="path-1" x="0" y="0" width="52" height="52" rx="4"></rect>
        <filter x="-43.3%" y="-43.3%" width="186.5%" height="186.5%" filterUnits="objectBoundingBox" id="filter-2">
            <feOffset dx="0" dy="0" in="SourceAlpha" result="shadowOffsetOuter1"></feOffset>
            <feGaussianBlur stdDeviation="7.5" in="shadowOffsetOuter1" result="shadowBlurOuter1"></feGaussianBlur>
            <feColorMatrix values="0 0 0 0 0.42745098   0 0 0 0 0.368627451   0 0 0 0 0.968627451  0 0 0 0.25 0" type="matrix" in="shadowBlurOuter1"></feColorMatrix>
        </filter>
    </defs>
    <g id="Page-1" stroke="none" stroke-width="1" fill="none" fill-rule="evenodd">
        <g id="MagnusLAndingPage" transform="translate(-135.000000, -7669.000000)">
            <g id="COntact" transform="translate(150.000000, 7212.000000)">
                <g id="phone-copy" transform="translate(0.000000, 308.000000)">
                    <g id="icon1-copy" transform="translate(0.000000, 164.000000)">
                        <g id="Rectangle-21">
                            <use fill="black" fill-opacity="1" filter="url(#filter-2)" xlink:href="#path-1"></use>
                            <use fill="#60F6D5" fill-rule="evenodd" xlink:href="#path-1"></use>
                        </g>
                        <g id="linkedin" transform="translate(12.000000, 12.000000)" fill="#FFFFFF" fill-rule="nonzero">
                            <path d="M3.69606508,0 C2.69221338,0 1.77958689,0.365063962 1.09513039,1.04952547 C0.365061289,1.77959992 0,2.69217961 0,3.65042572 C0,4.65428478 0.410673898,5.56691794 1.09513039,6.25137945 C1.77958689,6.93584096 2.73782599,7.34651786 3.65045247,7.30090492 C3.65045247,7.30090492 3.69606508,7.30090492 3.74173116,7.30090492 C4.65435765,7.30090492 5.52131805,6.93584096 6.20577455,6.25137945 C6.89023105,5.56691794 7.30090495,4.65428478 7.30090495,3.65042572 C7.34651755,2.69217961 6.93584366,1.77954645 6.25138716,1.09508494 C5.56693066,0.365010488 4.65430418,0 3.69606508,0 Z M5.56693066,5.61258436 C5.06497807,6.11454062 4.38052158,6.43393817 3.65045247,6.38832523 C2.96599598,6.38832523 2.23592687,6.11454062 1.73397428,5.61258436 C1.18640909,5.1106281 0.912626486,4.38055365 0.912626486,3.6504792 C0.912626486,2.92040475 1.18640909,2.23594324 1.73397428,1.68837403 C2.23592687,1.18641777 2.92038337,0.912633168 3.69606508,0.912633168 C4.38052158,0.912633168 5.06497807,1.18641777 5.56693066,1.68837403 C6.11449586,2.23594324 6.38827846,2.92040475 6.38827846,3.6504792 C6.38827846,4.38055365 6.11449586,5.1106281 5.56693066,5.61258436 Z" id="Shape"></path>
                            <path d="M4.78261234,8.52173913 L1.26088303,8.52173913 C0.565249782,8.52173913 0,9.13932338 0,9.94697637 L0,26.5747628 C0,27.3348707 0.608710937,28 1.30434419,28 L4.78261234,28 C5.47824558,28 6.08695652,27.3348707 6.08695652,26.6222521 L6.08695652,9.94697637 C6.08695652,9.18681273 5.47824558,8.52173913 4.78261234,8.52173913 Z M5.21737675,26.6222521 C5.21737675,26.8598102 4.99996907,27.0498233 4.78261234,27.0498233 L1.30434419,27.0498233 C1.08693651,27.0498233 0.869579775,26.8122652 0.869579775,26.5747628 L0.869579775,9.94697637 C0.869579775,9.70941827 1.04347535,9.47191585 1.26088303,9.47191585 L4.78261234,9.47191585 C5.00002002,9.47191585 5.21737675,9.70947395 5.21737675,9.94697637 L5.21737675,26.6222521 Z" id="Shape"></path>
                            <path d="M21.6245878,8.52173913 L20.6682866,8.52173913 C18.8922987,8.52173913 17.2074049,9.31016304 16.1144893,10.562337 L16.1144893,9.91304348 C16.1144893,9.44929348 15.6591256,8.98548913 15.2037085,8.98548913 L10.6499112,8.98548913 C10.2400679,8.98548913 9.73913043,9.35652174 9.73913043,9.86663043 L9.73913043,27.165163 C9.73913043,27.6753261 10.2400679,27.9999457 10.6499112,27.9999457 L15.6591256,27.9999457 C16.068969,27.9999457 16.5699064,27.6753261 16.5699064,27.165163 L16.5699064,17.1477717 C16.5699064,15.617337 17.662822,14.4115217 19.0744869,14.4115217 C19.8030795,14.4115217 20.4861518,14.6897826 20.9870892,15.1999457 C21.4424529,15.617337 21.6246411,16.2666304 21.6246411,17.101413 L21.6246411,27.0724457 C21.6246411,27.5361957 22.0800048,28 22.5354219,28 L27.0892192,28 C27.5445829,28 28,27.53625 28,27.0724457 L28,15.1072283 C27.9999466,11.3971196 25.2221372,8.52173913 21.6245878,8.52173913 Z M27.0891658,27.026087 L27.0436455,27.0724457 L22.5808889,27.0724457 L22.5353686,17.1014674 C22.5353686,15.9884239 22.2621397,15.1536413 21.6701615,14.5507609 C20.9870892,13.8551087 20.0763084,13.4840761 19.1200073,13.4840761 C17.2074049,13.5304348 15.704646,15.1072826 15.704646,17.1478261 L15.704646,27.0724457 L10.6954316,27.0724457 L10.6954316,9.91304348 L15.2037085,9.91304348 L15.2492289,9.95940217 L15.2492289,12.8811413 L16.4787589,11.6289674 L16.5242793,11.5826087 C17.4350601,10.2840761 19.0288598,9.44929348 20.713807,9.44929348 L21.6701081,9.44929348 C24.7211464,9.44929348 27.0891658,11.9536413 27.0891658,15.1072826 L27.0891658,27.026087 Z" id="Shape"></path>
                        </g>
                    </g>
                </g>
            </g>
        </g>
    </g>
</svg>