<?xml version="1.0" encoding="UTF-8"?>
<svg width="82px" height="82px" viewBox="0 0 82 82" version="1.1" xmlns="http://www.w3.org/2000/svg" xmlns:xlink="http://www.w3.org/1999/xlink">
    <!-- Generator: Sketch 50.2 (55047) - http://www.bohemiancoding.com/sketch -->
    <title>icon1</title>
    <desc>Created with Sketch.</desc>
    <defs>
        <rect id="path-1" x="0" y="0" width="52" height="52" rx="4"></rect>
        <filter x="-43.3%" y="-43.3%" width="186.5%" height="186.5%" filterUnits="objectBoundingBox" id="filter-2">
            <feOffset dx="0" dy="0" in="SourceAlpha" result="shadowOffsetOuter1"></feOffset>
            <feGaussianBlur stdDeviation="7.5" in="shadowOffsetOuter1" result="shadowBlurOuter1"></feGaussianBlur>
            <feColorMatrix values="0 0 0 0 0.42745098   0 0 0 0 0.368627451   0 0 0 0 0.968627451  0 0 0 0.25 0" type="matrix" in="shadowBlurOuter1"></feColorMatrix>
        </filter>
    </defs>
    <g id="Page-1" stroke="none" stroke-width="1" fill="none" fill-rule="evenodd">
        <g id="MagnusLAndingPage" transform="translate(-135.000000, -7587.000000)">
            <g id="COntact" transform="translate(150.000000, 7212.000000)">
                <g id="phone-copy-2" transform="translate(0.000000, 390.000000)">
                    <g id="icon1">
                        <g id="Rectangle-21">
                            <use fill="black" fill-opacity="1" filter="url(#filter-2)" xlink:href="#path-1"></use>
                            <use fill="#6D5EF7" fill-rule="evenodd" xlink:href="#path-1"></use>
                        </g>
                        <g id="001-mail" transform="translate(10.000000, 15.000000)" fill="#FFFFFF" fill-rule="nonzero">
                            <g id="Group" transform="translate(5.000000, 11.000000)">
                                <path d="M20.109,6.51 C19.986,6.51 19.863,6.465 19.767,6.374 L14.013,0.976 C13.812,0.788 13.802,0.471 13.991,0.27 C14.18,0.067 14.495,0.058 14.698,0.248 L20.452,5.646 C20.653,5.834 20.663,6.151 20.474,6.352 C20.375,6.457 20.243,6.51 20.109,6.51 Z" id="Shape"></path>
                                <path d="M0.902,6.51 C0.769,6.51 0.636,6.457 0.537,6.352 C0.348,6.151 0.358,5.834 0.559,5.646 L6.315,0.248 C6.517,0.06 6.834,0.068 7.022,0.27 C7.211,0.471 7.201,0.788 7,0.976 L1.244,6.374 C1.148,6.465 1.025,6.51 0.902,6.51 Z" id="Shape"></path>
                            </g>
                            <path d="M28.5009674,22 L2.49903263,22 C1.12156585,22 0,20.8813898 0,19.5053295 L0,2.49467048 C0,1.11861024 1.12156585,0 2.49903263,0 L28.5009674,0 C29.8784342,0 31,1.11861024 31,2.49467048 L31,19.5053295 C31,20.8813898 29.8784342,22 28.5009674,22 Z M2.49903263,0.997868191 C1.67235264,0.997868191 0.999613053,1.66943348 0.999613053,2.49467048 L0.999613053,19.5053295 C0.999613053,20.3305665 1.67235264,21.0021318 2.49903263,21.0021318 L28.5009674,21.0021318 C29.3276474,21.0021318 30.0003869,20.3305665 30.0003869,19.5053295 L30.0003869,2.49467048 C30.0003869,1.66943348 29.3276474,0.997868191 28.5009674,0.997868191 L2.49903263,0.997868191 Z" id="Shape"></path>
                            <path d="M16.0083733,14 C15.336172,14 14.6639707,13.7744758 14.1524912,13.324448 L1.17344642,1.89414892 C0.96319398,1.70944361 0.940955741,1.38697468 1.1239158,1.17369618 C1.30889751,0.961438148 1.62730865,0.942049193 1.83756109,1.12471356 L14.8166059,12.5539922 C15.4625256,13.1223947 16.554221,13.1223947 17.1991299,12.5539922 L30.1620014,1.14308204 C30.371243,0.958376734 30.6896542,0.97878616 30.8756467,1.19206466 C31.0586067,1.40534316 31.0373793,1.72679163 30.8271269,1.9125174 L17.8642554,13.3234275 C17.3517651,13.7744758 16.6805746,14 16.0083733,14 Z" id="Shape"></path>
                        </g>
                    </g>
                </g>
            </g>
        </g>
    </g>
</svg>