<?xml version="1.0" encoding="UTF-8"?>
<svg width="82px" height="82px" viewBox="0 0 82 82" version="1.1" xmlns="http://www.w3.org/2000/svg" xmlns:xlink="http://www.w3.org/1999/xlink">
    <!-- Generator: Sketch 50.2 (55047) - http://www.bohemiancoding.com/sketch -->
    <title>icon1</title>
    <desc>Created with Sketch.</desc>
    <defs>
        <rect id="path-1" x="0" y="0" width="52" height="52" rx="4"></rect>
        <filter x="-43.3%" y="-43.3%" width="186.5%" height="186.5%" filterUnits="objectBoundingBox" id="filter-2">
            <feOffset dx="0" dy="0" in="SourceAlpha" result="shadowOffsetOuter1"></feOffset>
            <feGaussianBlur stdDeviation="7.5" in="shadowOffsetOuter1" result="shadowBlurOuter1"></feGaussianBlur>
            <feColorMatrix values="0 0 0 0 0.42745098   0 0 0 0 0.368627451   0 0 0 0 0.968627451  0 0 0 0.25 0" type="matrix" in="shadowBlurOuter1"></feColorMatrix>
        </filter>
    </defs>
    <g id="Page-1" stroke="none" stroke-width="1" fill="none" fill-rule="evenodd">
        <g id="MagnusLAndingPage" transform="translate(-135.000000, -7505.000000)">
            <g id="COntact" transform="translate(150.000000, 7212.000000)">
                <g id="phone-copy" transform="translate(0.000000, 308.000000)">
                    <g id="icon1">
                        <g id="Rectangle-21">
                            <use fill="black" fill-opacity="1" filter="url(#filter-2)" xlink:href="#path-1"></use>
                            <use fill="#60F6D5" fill-rule="evenodd" xlink:href="#path-1"></use>
                        </g>
                        <g id="002-placeholder" transform="translate(12.000000, 6.000000)" fill="#FFFFFF" fill-rule="nonzero">
                            <path d="M14.0409231,8.61538462 C11.270359,8.61538462 9.01528205,10.8704615 9.01528205,13.6410256 C9.01528205,16.4115897 11.270359,18.6666667 14.0409231,18.6666667 C16.8114872,18.6666667 19.0665641,16.4115897 19.0665641,13.6410256 C19.0665641,10.8704615 16.8114872,8.61538462 14.0409231,8.61538462 Z M14.0409231,17.2307692 C12.0615385,17.2307692 10.4511795,15.6204103 10.4511795,13.6410256 C10.4511795,11.661641 12.0615385,10.0512821 14.0409231,10.0512821 C16.0203077,10.0512821 17.6306667,11.661641 17.6306667,13.6410256 C17.6306667,15.6204103 16.0203077,17.2307692 14.0409231,17.2307692 Z" id="Shape"></path>
                            <path d="M23.6492308,4.03271795 C21.0488205,1.43230769 17.5911795,0 13.9138462,0 C10.2357949,0 6.77887179,1.43230769 4.17846154,4.03271795 C-0.633948718,8.84441026 -1.232,17.8977436 2.88328205,23.3828718 L13.9138462,39.3127179 L24.9278974,23.4051282 C29.0596923,17.8977436 28.461641,8.84441026 23.6492308,4.03271795 Z M23.7633846,22.5658462 L13.9138462,36.7898462 L4.04851282,22.5435897 C0.315897436,17.5667692 0.850769231,9.39076923 5.19435897,5.04789744 C7.52338462,2.71887179 10.6198974,1.43589744 13.9138462,1.43589744 C17.2077949,1.43589744 20.3043077,2.71887179 22.6340513,5.04789744 C26.977641,9.39076923 27.5125128,17.5667692 23.7633846,22.5658462 Z" id="Shape"></path>
                        </g>
                    </g>
                </g>
            </g>
        </g>
    </g>
</svg>