<?xml version="1.0" encoding="UTF-8"?>
<svg width="82px" height="82px" viewBox="0 0 82 82" version="1.1" xmlns="http://www.w3.org/2000/svg" xmlns:xlink="http://www.w3.org/1999/xlink">
    <!-- Generator: Sketch 50.2 (55047) - http://www.bohemiancoding.com/sketch -->
    <title>icon1</title>
    <desc>Created with Sketch.</desc>
    <defs>
        <rect id="path-1" x="0" y="0" width="52" height="52" rx="4"></rect>
        <filter x="-43.3%" y="-43.3%" width="186.5%" height="186.5%" filterUnits="objectBoundingBox" id="filter-2">
            <feOffset dx="0" dy="0" in="SourceAlpha" result="shadowOffsetOuter1"></feOffset>
            <feGaussianBlur stdDeviation="7.5" in="shadowOffsetOuter1" result="shadowBlurOuter1"></feGaussianBlur>
            <feColorMatrix values="0 0 0 0 0.42745098   0 0 0 0 0.368627451   0 0 0 0 0.968627451  0 0 0 0.25 0" type="matrix" in="shadowBlurOuter1"></feColorMatrix>
        </filter>
    </defs>
    <g id="Page-1" stroke="none" stroke-width="1" fill="none" fill-rule="evenodd">
        <g id="MagnusLAndingPage" transform="translate(-713.000000, -4929.000000)">
            <g id="howItWorks" transform="translate(201.000000, 4624.000000)">
                <g id="firstIItel" transform="translate(527.000000, 315.000000)">
                    <g id="icon1" transform="translate(0.000000, 5.000000)">
                        <g id="Rectangle-21">
                            <use fill="black" fill-opacity="1" filter="url(#filter-2)" xlink:href="#path-1"></use>
                            <use fill="#6D5EF7" fill-rule="evenodd" xlink:href="#path-1"></use>
                        </g>
                        <g id="001-wifi" transform="translate(12.000000, 12.000000)" fill="#FFFFFF" fill-rule="nonzero">
                            <path d="M4.79894334,0.811171002 C4.98858751,0.625393956 4.98858751,0.32510983 4.79894334,0.139332784 C4.60929917,-0.0464442615 4.30276435,-0.0464442615 4.11312017,0.139332784 C-1.37104006,5.51166286 -1.37104006,14.2531618 4.11312017,19.6254919 C4.20818477,19.7181428 4.33235078,19.7647059 4.45603176,19.7647059 C4.57971274,19.7647059 4.70436377,19.7181428 4.79894334,19.6254919 C4.98858751,19.4397148 4.98858751,19.1394307 4.79894334,18.9536537 C-0.306898593,13.9514523 -0.306898593,5.81289725 4.79894334,0.811171002 Z" id="Shape"></path>
                            <path d="M23.8868189,0.139332784 C23.6971887,-0.0464442615 23.3906764,-0.0464442615 23.2010462,0.139332784 C23.011416,0.32510983 23.011416,0.625393956 23.2010462,0.811171002 C25.6706038,3.23007366 27.0305095,6.45147615 27.0305095,9.88241233 C27.0305095,13.3133485 25.6706038,16.534751 23.2010462,18.9536537 C23.011416,19.1394307 23.011416,19.4397148 23.2010462,19.6254919 C23.2956188,19.7181428 23.4197757,19.7647059 23.5439325,19.7647059 C23.6680894,19.7647059 23.7922463,19.7181428 23.8868189,19.6254919 C26.5397019,17.0269889 28,13.5670696 28,9.88241233 C28,6.19775507 26.5397019,2.73783576 23.8868189,0.139332784 Z" id="Shape"></path>
                            <path d="M7.26858147,2.45378849 C7.45949245,2.26902861 7.45949245,1.97038861 7.26858147,1.78562873 C7.0776705,1.60086885 6.76908805,1.60086885 6.57817707,1.78562873 C2.19943117,6.02329261 2.19943117,12.9184745 6.57817707,17.1556659 C6.67338843,17.2478095 6.79838385,17.2941176 6.92337927,17.2941176 C7.04837469,17.2941176 7.17337012,17.2478095 7.26858147,17.1556659 C7.45949245,16.970906 7.45949245,16.672266 7.26858147,16.4875061 C3.27068101,12.6184169 3.27068101,6.32335021 7.26858147,2.45378849 Z" id="Shape"></path>
                            <path d="M21.4218229,1.78562873 C21.230912,1.60086885 20.9223295,1.60086885 20.7314185,1.78562873 C20.5405075,1.97038861 20.5405075,2.26902861 20.7314185,2.45378849 C24.729319,6.32287768 24.729319,12.6184169 20.7314185,16.4875061 C20.5405075,16.672266 20.5405075,16.970906 20.7314185,17.1556659 C20.8266299,17.2478095 20.9516253,17.2941176 21.0766207,17.2941176 C21.2016162,17.2941176 21.3266116,17.2478095 21.4218229,17.1556659 C25.8005688,12.9184745 25.8005688,6.02329261 21.4218229,1.78562873 Z" id="Shape"></path>
                            <path d="M8.91419651,4.25492843 C8.72136049,4.0718866 8.40966646,4.0718866 8.21683044,4.25492843 C6.6356737,5.75577783 5.76470588,7.75425757 5.76470588,9.88241146 C5.76470588,12.0105653 6.6356737,14.008577 8.21683044,15.5098945 C8.31300186,15.6011813 8.43925767,15.6470588 8.56551348,15.6470588 C8.69176929,15.6470588 8.8180251,15.6011813 8.91419651,15.5098945 C9.10703253,15.3268527 9.10703253,15.0309896 8.91419651,14.8479478 C6.02954717,12.1098105 6.02954717,7.65548052 8.91419651,4.91734325 C9.10653935,4.73430141 9.10653935,4.43797026 8.91419651,4.25492843 Z" id="Shape"></path>
                            <path d="M19.7831696,4.25493401 C19.5903335,4.07188474 19.2786395,4.07188474 19.0858035,4.25493401 C18.8929675,4.43798327 18.8929675,4.7338583 19.0858035,4.91690756 C21.9704528,7.65515602 21.9704528,12.1096669 19.0858035,14.8479154 C18.8929675,15.0309646 18.8929675,15.3268396 19.0858035,15.5098889 C19.1819749,15.6011795 19.3082307,15.6470588 19.4344865,15.6470588 C19.5607423,15.6470588 19.6869981,15.6011795 19.7831696,15.5098889 C21.3643263,14.0089786 22.2352941,12.0104177 22.2352941,9.88217738 C22.2352941,7.75393708 21.3643263,5.75584435 19.7831696,4.25493401 Z" id="Shape"></path>
                            <path d="M14,6.58823529 C12.184,6.58823529 10.7058824,8.08277647 10.7058824,9.91895425 C10.7058824,11.5933542 11.936,12.9794092 13.5294118,13.2116078 L13.5294118,27.524183 C13.5294118,27.7873098 13.7397647,28 14,28 C14.2602353,28 14.4705882,27.7873098 14.4705882,27.524183 L14.4705882,13.2116078 C16.064,12.9794092 17.2941176,11.5933542 17.2941176,9.91895425 C17.2941176,8.08277647 15.8164706,6.58823529 14,6.58823529 Z M14,12.2980392 C12.7025882,12.2980392 11.6470588,11.2307817 11.6470588,9.91895425 C11.6470588,8.6071268 12.7025882,7.53986928 14,7.53986928 C15.2974118,7.53986928 16.3529412,8.6071268 16.3529412,9.91895425 C16.3529412,11.2307817 15.2974118,12.2980392 14,12.2980392 Z" id="Shape"></path>
                        </g>
                    </g>
                </g>
            </g>
        </g>
    </g>
</svg>