<?xml version="1.0" encoding="UTF-8"?>
<svg width="82px" height="82px" viewBox="0 0 82 82" version="1.1" xmlns="http://www.w3.org/2000/svg" xmlns:xlink="http://www.w3.org/1999/xlink">
    <!-- Generator: Sketch 50.2 (55047) - http://www.bohemiancoding.com/sketch -->
    <title>icon1</title>
    <desc>Created with Sketch.</desc>
    <defs>
        <rect id="path-1" x="0" y="0" width="52" height="52" rx="4"></rect>
        <filter x="-43.3%" y="-43.3%" width="186.5%" height="186.5%" filterUnits="objectBoundingBox" id="filter-2">
            <feOffset dx="0" dy="0" in="SourceAlpha" result="shadowOffsetOuter1"></feOffset>
            <feGaussianBlur stdDeviation="7.5" in="shadowOffsetOuter1" result="shadowBlurOuter1"></feGaussianBlur>
            <feColorMatrix values="0 0 0 0 0.42745098   0 0 0 0 0.368627451   0 0 0 0 0.968627451  0 0 0 0.25 0" type="matrix" in="shadowBlurOuter1"></feColorMatrix>
        </filter>
    </defs>
    <g id="Page-1" stroke="none" stroke-width="1" fill="none" fill-rule="evenodd">
        <g id="MagnusLAndingPage" transform="translate(-135.000000, -7423.000000)">
            <g id="COntact" transform="translate(150.000000, 7212.000000)">
                <g id="phone" transform="translate(0.000000, 226.000000)">
                    <g id="icon1">
                        <g id="Rectangle-21">
                            <use fill="black" fill-opacity="1" filter="url(#filter-2)" xlink:href="#path-1"></use>
                            <use fill="#6D5EF7" fill-rule="evenodd" xlink:href="#path-1"></use>
                        </g>
                        <g id="003-phone-call" transform="translate(12.000000, 12.000000)" fill="#FFFFFF" fill-rule="nonzero">
                            <path d="M27.9808817,23.045734 C27.8918637,22.3729011 27.5034379,21.7927748 26.9153263,21.4541812 L20.0076004,17.4769925 C19.1615663,16.989875 18.0882702,17.1316864 17.3977153,17.8221777 L16.0371063,19.1827806 C15.6750473,19.5448984 15.1022356,19.5769496 14.7049806,19.257224 C13.6323497,18.3941401 12.5762283,17.4442761 11.5660068,16.4339987 C10.5557853,15.4237818 9.60591704,14.3677256 8.74276879,13.2950391 C8.4230417,12.8977254 8.45503255,12.3249768 8.81721253,11.962859 L10.1777611,10.6022561 C10.8682555,9.91182527 11.0102489,8.83865497 10.5230083,7.99244331 L6.54580158,1.08474858 C6.20714607,0.496579175 5.62707754,0.108215619 4.95424159,0.0191979993 C4.28134517,-0.0700010423 3.62018074,0.154417699 3.1402575,0.63433878 L1.09012165,2.68452584 C-0.340758396,4.11545988 -0.363738592,6.73289237 1.02541425,10.0547856 C2.36116838,13.2488975 4.8539149,16.7650935 8.04435226,19.9556373 C11.2349106,23.1461208 14.7511224,25.638856 17.9453092,26.9746041 C19.5804711,27.6583828 21.0447934,28.0000605 22.2811279,28 C23.5564078,28 24.5890048,27.6363703 25.3156023,26.9098365 L27.3657382,24.8596495 C27.8456009,24.3797284 28.0698393,23.718567 27.9808817,23.045734 Z M19.5550115,18.2630931 L26.4627374,22.2402818 C26.8043562,22.436943 27.0299249,22.7739037 27.0815699,23.1646863 C27.1249904,23.4926364 27.0397822,23.8155671 26.8466276,24.0757864 L17.6663417,18.8364464 L18.0391652,18.4636246 C18.4401696,18.062622 19.0636586,17.9801961 19.5550115,18.2630931 Z M4.83522837,0.91850576 C5.22607312,0.970210967 5.56297489,1.19577871 5.75963699,1.53739592 L9.73684369,8.44509065 C10.0198629,8.93656225 9.93737613,9.55992749 9.53637171,9.96086962 L9.19390632,10.3033335 L3.92575688,1.15344696 C4.1411055,0.993977221 4.39866512,0.907378558 4.66717057,0.907378558 C4.7228673,0.907378558 4.77904784,0.911067467 4.83522837,0.91850576 Z M24.674092,26.2683896 C23.537298,27.4051785 21.2123069,27.357525 18.2952734,26.137645 C15.2074608,24.8464057 11.7948412,22.4230945 8.68586257,19.3141904 C5.57688395,16.2052258 3.15356182,12.7925612 1.8623167,9.70482302 C0.642370671,6.78774222 0.594777476,4.46276164 1.73157148,3.3259123 L3.25352567,1.80390452 L8.52959724,10.9676395 L8.17576269,11.3214725 C7.4854497,12.0118428 7.42533835,13.1047276 8.03600682,13.8637964 C8.9194744,14.961761 9.89135527,16.0423091 10.9244965,17.0754457 C11.9577587,18.1086427 13.0383117,19.0805192 14.1362208,19.9639828 C14.895172,20.5746485 15.9880617,20.5145979 16.6785561,19.824167 L17.0013674,19.5013572 L26.1944134,24.7480146 L24.674092,26.2683896 Z" id="Shape"></path>
                        </g>
                    </g>
                </g>
            </g>
        </g>
    </g>
</svg>