<?xml version="1.0" encoding="UTF-8"?>
<svg width="100px" height="79px" viewBox="0 0 100 79" version="1.1" xmlns="http://www.w3.org/2000/svg" xmlns:xlink="http://www.w3.org/1999/xlink">
    <!-- Generator: Sketch 50.2 (55047) - http://www.bohemiancoding.com/sketch -->
    <title>twitter</title>
    <desc>Created with Sketch.</desc>
    <defs></defs>
    <g id="Page-1" stroke="none" stroke-width="1" fill="none" fill-rule="evenodd">
        <g id="MagnusLAndingPage" transform="translate(-1219.000000, -7468.000000)" fill="#6D5EF7" fill-rule="nonzero">
            <g id="COntact" transform="translate(150.000000, 7212.000000)">
                <g id="twitter" transform="translate(831.000000, 25.000000)">
                    <g transform="translate(238.000000, 231.000000)" id="Shape">
                        <path d="M33.7409357,78.4815789 C24.0669591,78.4815789 14.4830409,75.8038012 6.02836257,70.7391813 L0,67.1292398 L7.0245614,67.2476608 C7.25204678,67.2590643 7.61842105,67.2777778 8.19532164,67.2777778 C10.8692982,67.2777778 19.3877193,66.8473684 28.1222222,61.9184211 C21.5564327,59.9660819 16.1309942,54.8903509 13.8967836,48.2453216 L12.7900585,44.9549708 L15.804386,45.7385965 C10.9730994,42.027193 7.8122807,36.3219298 7.46637427,29.9628655 L7.30087719,26.9187135 L10.0953216,28.1383041 C10.6046784,28.3619883 11.1230994,28.5593567 11.6494152,28.730117 C7.68070175,23.1751462 5.27894737,14.5912281 10.2871345,5.47339181 L11.6663743,2.96081871 L13.4195906,5.22894737 C21.8195906,16.0888889 34.2748538,22.7111111 47.8576023,23.6204678 C47.7748538,22.7766082 47.7166667,22.0005848 47.7166667,21.7581871 C47.7166667,11.6780702 55.3874269,1.25233918 68.2225146,1.25233918 C73.6102339,1.25233918 78.7967836,3.39269006 82.6172515,7.16052632 C87.7380117,5.95789474 92.6315789,2.97192982 92.6842105,2.93976608 L97.122807,0.207309942 L95.4464912,5.14385965 C94.6421053,7.50789474 93.4169591,9.68596491 91.8459064,11.5877193 C92.702924,11.3076023 93.5447368,10.9862573 94.4111111,10.6087719 L99.7423977,8.00409357 L97.5023392,12.8149123 C95.6532164,16.7894737 92.5695906,20.0687135 88.7397661,22.1657895 C89.5815789,35.3219298 84.171345,50.0002924 74.4391813,60.7795322 C67.2154971,68.7830409 54.3505848,78.3479532 34.0836257,78.4777778 L33.7409357,78.4815789 Z M13.9885965,70.605848 C20.2538012,73.3099415 26.9736842,74.721345 33.7388889,74.721345 L34.0602339,74.7195906 C52.9573099,74.5994152 64.9333333,65.7032164 71.6497076,58.2616959 C81.0154971,47.8865497 86.0932749,33.7005848 84.8979532,21.2380117 L84.7719298,19.9152047 L85.9745614,19.3552632 C87.8818713,18.4663743 89.5900585,17.2318713 91.0239766,15.7304094 C89.4192982,16.1362573 87.7073099,16.4388889 85.7339181,16.6774854 L84.2926901,16.8523392 L83.1690058,14.0035088 L84.4769006,12.9961988 C86.3090643,11.9230994 87.9064327,10.5251462 89.1973684,8.88830409 C87.1546784,9.75847953 84.7435673,10.6096491 82.3327485,11.0587719 L81.302924,11.2505848 L80.5982456,10.4763158 C77.4298246,6.9997076 72.9216374,5.00789474 68.2236842,5.00789474 C57.7415205,5.00789474 51.4763158,13.5225146 51.4763158,21.7552632 C51.4763158,22.2532164 51.724269,24.5195906 51.8125731,25.1020468 L52.6657895,27.5280702 L49.9523392,27.469883 C35.4073099,27.1561404 21.8754386,20.7818713 12.3760234,9.87309942 C8.61754386,19.7426901 14.9280702,27.6277778 17.9421053,29.9897661 L22.3488304,33.445614 L16.7505848,33.3479532 C14.9973684,33.3178363 13.2815789,33.0792398 11.6184211,32.6356725 C13.0973684,39.2315789 18.3102339,44.5309942 25.0827485,45.9853801 L32.4961988,47.5789474 L25.1973684,49.6330409 C23.9251462,49.9900585 22.4818713,50.1704678 20.9073099,50.1704678 C20.1707602,50.1704678 19.4660819,50.1309942 18.8157895,50.0707602 C21.7511696,55.2385965 27.2175439,58.7114035 33.2649123,59.0064327 L38.5491228,59.2657895 L34.2877193,62.3976608 C26.9833333,67.7701754 19.4064327,69.8391813 13.9885965,70.605848 Z"></path>
                    </g>
                </g>
            </g>
        </g>
    </g>
</svg>